<mxfile host="Electron" modified="2023-10-18T00:03:05.878Z" agent="Mozilla/5.0 (Windows NT 10.0; Win64; x64) AppleWebKit/537.36 (KHTML, like Gecko) draw.io/22.0.2 Chrome/114.0.5735.289 Electron/25.8.4 Safari/537.36" etag="6Op7kJoNhU6rw_HuDTp7" version="22.0.2" type="device">
  <diagram name="PÃ¡gina-1" id="F1WRcmvP7Vv79iwrEqju">
    <mxGraphModel dx="1235" dy="729" grid="1" gridSize="10" guides="1" tooltips="1" connect="1" arrows="1" fold="1" page="1" pageScale="1" pageWidth="827" pageHeight="1169" math="0" shadow="0">
      <root>
        <mxCell id="0" />
        <mxCell id="1" parent="0" />
        <mxCell id="bLtXuOe2Dkwyo7ntfn92-1" value="" style="rounded=1;whiteSpace=wrap;html=1;arcSize=3;" vertex="1" parent="1">
          <mxGeometry x="10" width="570" height="430" as="geometry" />
        </mxCell>
        <mxCell id="bLtXuOe2Dkwyo7ntfn92-2" value="" style="rounded=0;whiteSpace=wrap;html=1;" vertex="1" parent="1">
          <mxGeometry x="25" y="20" width="225" height="390" as="geometry" />
        </mxCell>
        <mxCell id="bLtXuOe2Dkwyo7ntfn92-3" value="" style="rounded=0;whiteSpace=wrap;html=1;" vertex="1" parent="1">
          <mxGeometry x="340" y="20" width="225" height="390" as="geometry" />
        </mxCell>
        <mxCell id="bLtXuOe2Dkwyo7ntfn92-6" value="" style="rounded=1;whiteSpace=wrap;html=1;" vertex="1" parent="1">
          <mxGeometry x="268.75" y="190" width="52.5" height="50" as="geometry" />
        </mxCell>
        <mxCell id="bLtXuOe2Dkwyo7ntfn92-9" value="" style="rounded=0;whiteSpace=wrap;html=1;" vertex="1" parent="1">
          <mxGeometry x="25" y="20" width="225" height="50" as="geometry" />
        </mxCell>
        <mxCell id="bLtXuOe2Dkwyo7ntfn92-10" value="" style="rounded=0;whiteSpace=wrap;html=1;" vertex="1" parent="1">
          <mxGeometry x="220" y="30" width="20" height="30" as="geometry" />
        </mxCell>
        <mxCell id="bLtXuOe2Dkwyo7ntfn92-12" value="" style="rounded=0;whiteSpace=wrap;html=1;" vertex="1" parent="1">
          <mxGeometry x="36" y="30" width="170" height="30" as="geometry" />
        </mxCell>
        <mxCell id="bLtXuOe2Dkwyo7ntfn92-13" value="" style="rounded=0;whiteSpace=wrap;html=1;" vertex="1" parent="1">
          <mxGeometry x="340" y="20" width="225" height="50" as="geometry" />
        </mxCell>
        <mxCell id="bLtXuOe2Dkwyo7ntfn92-14" value="" style="rounded=0;whiteSpace=wrap;html=1;" vertex="1" parent="1">
          <mxGeometry x="351" y="30" width="170" height="30" as="geometry" />
        </mxCell>
        <mxCell id="bLtXuOe2Dkwyo7ntfn92-15" value="" style="rounded=0;whiteSpace=wrap;html=1;" vertex="1" parent="1">
          <mxGeometry x="535" y="30" width="20" height="30" as="geometry" />
        </mxCell>
        <mxCell id="bLtXuOe2Dkwyo7ntfn92-16" value="" style="triangle;whiteSpace=wrap;html=1;rotation=90;" vertex="1" parent="1">
          <mxGeometry x="44.67" y="39.339999999999996" width="10" height="13.33" as="geometry" />
        </mxCell>
        <mxCell id="bLtXuOe2Dkwyo7ntfn92-17" value="" style="triangle;whiteSpace=wrap;html=1;rotation=90;" vertex="1" parent="1">
          <mxGeometry x="360" y="39.339999999999996" width="10" height="13.33" as="geometry" />
        </mxCell>
      </root>
    </mxGraphModel>
  </diagram>
</mxfile>
